<svg width="375" height="1132" viewBox="0 0 375 1132" fill="none" xmlns="http://www.w3.org/2000/svg">
<g clip-path="url(#clip0_0_223)">
<rect width="375" height="1132" fill="#014E56"/>
<mask id="mask0_0_223" style="mask-type:alpha" maskUnits="userSpaceOnUse" x="0" y="0" width="375" height="1132">
<rect width="375" height="1132" fill="white"/>
</mask>
<g mask="url(#mask0_0_223)">
<path fill-rule="evenodd" clip-rule="evenodd" d="M475.5 1119.5C475.5 1064.27 430.728 1019.5 375.5 1019.5C320.272 1019.5 275.5 1064.27 275.5 1119.5C275.5 1174.73 320.272 1219.5 375.5 1219.5C430.728 1219.5 475.5 1174.73 475.5 1119.5ZM408.5 1119.5C408.5 1101.27 393.725 1086.5 375.5 1086.5C357.275 1086.5 342.5 1101.27 342.5 1119.5C342.5 1137.73 357.275 1152.5 375.5 1152.5C393.725 1152.5 408.5 1137.73 408.5 1119.5Z" fill="#012F34"/>
<rect x="318.5" y="1019.5" width="43" height="43" transform="rotate(90 318.5 1019.5)" fill="#79C8C7"/>
<path fill-rule="evenodd" clip-rule="evenodd" d="M475.5 1143.99C475.5 1088.76 430.728 1043.99 375.5 1043.99C320.272 1043.99 275.5 1088.76 275.5 1143.99C275.5 1199.22 320.272 1243.99 375.5 1243.99C430.728 1243.99 475.5 1199.22 475.5 1143.99ZM408.5 1143.99C408.5 1125.76 393.725 1110.99 375.5 1110.99C357.275 1110.99 342.5 1125.76 342.5 1143.99C342.5 1162.21 357.275 1176.99 375.5 1176.99C393.725 1176.99 408.5 1162.21 408.5 1143.99Z" fill="#F67E7E"/>
</g>
</g>
<defs>
<clipPath id="clip0_0_223">
<rect width="375" height="1132" fill="white"/>
</clipPath>
</defs>
</svg>
