<svg width="768" height="1204" viewBox="0 0 768 1204" fill="none" xmlns="http://www.w3.org/2000/svg">
<g clip-path="url(#clip0_0_1225)">
<rect width="768" height="1204" fill="#014E56"/>
<mask id="mask0_0_1225" style="mask-type:alpha" maskUnits="userSpaceOnUse" x="0" y="0" width="768" height="1204">
<rect width="768" height="1204" fill="white"/>
</mask>
<g mask="url(#mask0_0_1225)">
<path fill-rule="evenodd" clip-rule="evenodd" d="M868.5 1082.5C868.5 1027.27 823.728 982.5 768.5 982.5C713.272 982.5 668.5 1027.27 668.5 1082.5C668.5 1137.73 713.272 1182.5 768.5 1182.5C823.728 1182.5 868.5 1137.73 868.5 1082.5ZM801.5 1082.5C801.5 1064.27 786.725 1049.5 768.5 1049.5C750.275 1049.5 735.5 1064.27 735.5 1082.5C735.5 1100.73 750.275 1115.5 768.5 1115.5C786.725 1115.5 801.5 1100.73 801.5 1082.5Z" fill="#012F34"/>
<rect x="711.5" y="982.5" width="43" height="43" transform="rotate(90 711.5 982.5)" fill="#79C8C7"/>
<path fill-rule="evenodd" clip-rule="evenodd" d="M868.5 1106.99C868.5 1051.76 823.728 1006.99 768.5 1006.99C713.272 1006.99 668.5 1051.76 668.5 1106.99C668.5 1162.22 713.272 1206.99 768.5 1206.99C823.728 1206.99 868.5 1162.22 868.5 1106.99ZM801.5 1106.99C801.5 1088.76 786.725 1073.99 768.5 1073.99C750.275 1073.99 735.5 1088.76 735.5 1106.99C735.5 1125.21 750.275 1139.99 768.5 1139.99C786.725 1139.99 801.5 1125.21 801.5 1106.99Z" fill="#F67E7E"/>
<rect width="100" height="100" transform="matrix(1 0 0 -1 0 316)" fill="#2C6269"/>
<path fill-rule="evenodd" clip-rule="evenodd" d="M0 416C-55.2285 416 -100 371.228 -100 316C-100 260.772 -55.2285 216 0 216C55.2285 216 100 260.772 100 316C100 371.228 55.2285 416 0 416ZM0 349C-18.2254 349 -33 334.225 -33 316C-33 297.775 -18.2254 283 0 283C18.2254 283 33 297.775 33 316C33 334.225 18.2254 349 0 349Z" fill="#012F34"/>
<path fill-rule="evenodd" clip-rule="evenodd" d="M0 272H100V276H0V272ZM0 280H100V284H0V280ZM100 288H0V292H100V288ZM0 296H100V300H0V296ZM100 304H0V308H100V304ZM0 312H100V316H0V312Z" fill="#79C8C7"/>
<path fill-rule="evenodd" clip-rule="evenodd" d="M100 316H96V320H100V316ZM89 316H93V320H89V316ZM89 324H93V328H89V324ZM93 332H89V336H93V332ZM89 340H93V344H89V340ZM93 348H89V352H93V348ZM89 356H93V360H89V356ZM86 316H82V320H86V316ZM86 324H82V328H86V324ZM82 332H86V336H82V332ZM86 340H82V344H86V340ZM82 348H86V352H82V348ZM86 356H82V360H86V356ZM100 324H96V328H100V324ZM79 316H75V320H79V316ZM79 324H75V328H79V324ZM75 332H79V336H75V332ZM79 340H75V344H79V340ZM75 348H79V352H75V348ZM79 356H75V360H79V356ZM100 332H96V336H100V332ZM72 316H68V320H72V316ZM72 324H68V328H72V324ZM68 332H72V336H68V332ZM72 340H68V344H72V340ZM68 348H72V352H68V348ZM72 356H68V360H72V356ZM100 340H96V344H100V340ZM65 316H61V320H65V316ZM65 324H61V328H65V324ZM61 332H65V336H61V332ZM65 340H61V344H65V340ZM61 348H65V352H61V348ZM65 356H61V360H65V356ZM100 348H96V352H100V348ZM58 316H54V320H58V316ZM58 324H54V328H58V324ZM54 332H58V336H54V332ZM58 340H54V344H58V340ZM54 348H58V352H54V348ZM58 356H54V360H58V356ZM100 356H96V360H100V356ZM51 316H47V320H51V316ZM51 324H47V328H51V324ZM47 332H51V336H47V332ZM51 340H47V344H51V340ZM47 348H51V352H47V348ZM51 356H47V360H51V356Z" fill="#F67E7E"/>
</g>
</g>
<defs>
<clipPath id="clip0_0_1225">
<rect width="768" height="1204" fill="white"/>
</clipPath>
</defs>
</svg>
