<svg width="375" height="302" viewBox="0 0 375 302" fill="none" xmlns="http://www.w3.org/2000/svg">
<g clip-path="url(#clip0_0_1106)">
<rect width="375" height="302" fill="#F67E7E"/>
<mask id="mask0_0_1106" style="mask-type:alpha" maskUnits="userSpaceOnUse" x="0" y="0" width="375" height="302">
<rect width="375" height="302" fill="white"/>
</mask>
<g mask="url(#mask0_0_1106)">
<rect x="100" y="324" width="100" height="100" transform="rotate(-180 100 324)" fill="#2C6269"/>
<path fill-rule="evenodd" clip-rule="evenodd" d="M100 424C155.228 424 200 379.228 200 324C200 268.772 155.228 224 100 224C44.7715 224 0 268.772 0 324C0 379.228 44.7715 424 100 424ZM100 357C118.225 357 133 342.225 133 324C133 305.775 118.225 291 100 291C81.7746 291 67 305.775 67 324C67 342.225 81.7746 357 100 357Z" fill="#004047"/>
<path fill-rule="evenodd" clip-rule="evenodd" d="M100 280H0V284H100V280ZM100 288H0V292H100V288ZM0 296H100V300H0V296ZM100 304H0V308H100V304ZM0 312H100V316H0V312ZM100 320H0V324H100V320Z" fill="#F67E7E"/>
<path fill-rule="evenodd" clip-rule="evenodd" d="M0 180H4V184H0V180ZM11 180H7V184H11V180ZM11 188H7V192H11V188ZM7 196H11V200H7V196ZM11 204H7V208H11V204ZM7 212H11V216H7V212ZM11 220H7V224H11V220ZM14 180H18V184H14V180ZM14 188H18V192H14V188ZM18 196H14V200H18V196ZM14 204H18V208H14V204ZM18 212H14V216H18V212ZM14 220H18V224H14V220ZM0 188H4V192H0V188ZM21 180H25V184H21V180ZM21 188H25V192H21V188ZM25 196H21V200H25V196ZM21 204H25V208H21V204ZM25 212H21V216H25V212ZM21 220H25V224H21V220ZM0 196H4V200H0V196ZM28 180H32V184H28V180ZM28 188H32V192H28V188ZM32 196H28V200H32V196ZM28 204H32V208H28V204ZM32 212H28V216H32V212ZM28 220H32V224H28V220ZM0 204H4V208H0V204ZM35 180H39V184H35V180ZM35 188H39V192H35V188ZM39 196H35V200H39V196ZM35 204H39V208H35V204ZM39 212H35V216H39V212ZM35 220H39V224H35V220ZM0 212H4V216H0V212ZM42 180H46V184H42V180ZM42 188H46V192H42V188ZM46 196H42V200H46V196ZM42 204H46V208H42V204ZM46 212H42V216H46V212ZM42 220H46V224H42V220ZM0 220H4V224H0V220ZM49 180H53V184H49V180ZM49 188H53V192H49V188ZM53 196H49V200H53V196ZM49 204H53V208H49V204ZM53 212H49V216H53V212ZM49 220H53V224H49V220Z" fill="#79C8C7"/>
</g>
</g>
<defs>
<clipPath id="clip0_0_1106">
<rect width="375" height="302" fill="white"/>
</clipPath>
</defs>
</svg>
