<svg width="1440" height="789" viewBox="0 0 1440 789" fill="none" xmlns="http://www.w3.org/2000/svg">
<g clip-path="url(#clip0_0_3491)">
<rect width="1440" height="789" fill="#014E56"/>
<mask id="mask0_0_3491" style="mask-type:alpha" maskUnits="userSpaceOnUse" x="0" y="0" width="1440" height="789">
<rect width="1440" height="789" fill="white"/>
</mask>
<g mask="url(#mask0_0_3491)">
<rect width="100" height="100" transform="matrix(1 0 0 -1 0 345)" fill="#2C6269"/>
<path fill-rule="evenodd" clip-rule="evenodd" d="M0 445C-55.2285 445 -100 400.228 -100 345C-100 289.772 -55.2285 245 0 245C55.2285 245 100 289.772 100 345C100 400.228 55.2285 445 0 445ZM0 378C-18.2254 378 -33 363.225 -33 345C-33 326.775 -18.2254 312 0 312C18.2254 312 33 326.775 33 345C33 363.225 18.2254 378 0 378Z" fill="#012F34"/>
<path fill-rule="evenodd" clip-rule="evenodd" d="M0 301H100V305H0V301ZM0 309H100V313H0V309ZM100 317H0V321H100V317ZM0 325H100V329H0V325ZM100 333H0V337H100V333ZM0 341H100V345H0V341Z" fill="#79C8C7"/>
<path fill-rule="evenodd" clip-rule="evenodd" d="M100 345H96V349H100V345ZM89 345H93V349H89V345ZM89 353H93V357H89V353ZM93 361H89V365H93V361ZM89 369H93V373H89V369ZM93 377H89V381H93V377ZM89 385H93V389H89V385ZM86 345H82V349H86V345ZM86 353H82V357H86V353ZM82 361H86V365H82V361ZM86 369H82V373H86V369ZM82 377H86V381H82V377ZM86 385H82V389H86V385ZM100 353H96V357H100V353ZM79 345H75V349H79V345ZM79 353H75V357H79V353ZM75 361H79V365H75V361ZM79 369H75V373H79V369ZM75 377H79V381H75V377ZM79 385H75V389H79V385ZM100 361H96V365H100V361ZM72 345H68V349H72V345ZM72 353H68V357H72V353ZM68 361H72V365H68V361ZM72 369H68V373H72V369ZM68 377H72V381H68V377ZM72 385H68V389H72V385ZM100 369H96V373H100V369ZM65 345H61V349H65V345ZM65 353H61V357H65V353ZM61 361H65V365H61V361ZM65 369H61V373H65V369ZM61 377H65V381H61V377ZM65 385H61V389H65V385ZM100 377H96V381H100V377ZM58 345H54V349H58V345ZM58 353H54V357H58V353ZM54 361H58V365H54V361ZM58 369H54V373H58V369ZM54 377H58V381H54V377ZM58 385H54V389H58V385ZM100 385H96V389H100V385ZM51 345H47V349H51V345ZM51 353H47V357H51V353ZM47 361H51V365H47V361ZM51 369H47V373H51V369ZM47 377H51V381H47V377ZM51 385H47V389H51V385Z" fill="#F67E7E"/>
<path fill-rule="evenodd" clip-rule="evenodd" d="M1540.5 663.5C1540.5 608.272 1495.73 563.5 1440.5 563.5C1385.27 563.5 1340.5 608.272 1340.5 663.5C1340.5 718.728 1385.27 763.5 1440.5 763.5C1495.73 763.5 1540.5 718.728 1540.5 663.5ZM1473.5 663.5C1473.5 645.275 1458.73 630.5 1440.5 630.5C1422.27 630.5 1407.5 645.275 1407.5 663.5C1407.5 681.725 1422.27 696.5 1440.5 696.5C1458.73 696.5 1473.5 681.725 1473.5 663.5Z" fill="#012F34"/>
<rect x="1383.5" y="563.5" width="43" height="43" transform="rotate(90 1383.5 563.5)" fill="#79C8C7"/>
<path fill-rule="evenodd" clip-rule="evenodd" d="M1540.5 687.987C1540.5 632.758 1495.73 587.987 1440.5 587.987C1385.27 587.987 1340.5 632.758 1340.5 687.987C1340.5 743.215 1385.27 787.987 1440.5 787.987C1495.73 787.987 1540.5 743.215 1540.5 687.987ZM1473.5 687.987C1473.5 669.761 1458.73 654.987 1440.5 654.987C1422.27 654.987 1407.5 669.761 1407.5 687.987C1407.5 706.212 1422.27 720.987 1440.5 720.987C1458.73 720.987 1473.5 706.212 1473.5 687.987Z" fill="#F67E7E"/>
</g>
</g>
<defs>
<clipPath id="clip0_0_3491">
<rect width="1440" height="789" fill="white"/>
</clipPath>
</defs>
</svg>
